<?xml version="1.0" encoding="UTF-8"?>
<svg id="Layer_2" data-name="Layer 2" xmlns="http://www.w3.org/2000/svg" viewBox="0 0 36.64 31.62">
  <defs>
    <style>
      .cls-1 {
        fill: #ffe7b2;
        fill-rule: evenodd;
      }
    </style>
  </defs>
  <g id="Layer_1-2" data-name="Layer 1">
    <path class="cls-1" d="M2.76,2.51c-6.02,6.02-1.64,16.69,7.77,14.43,4.46,2.59,7.82,5.84,10.32,9.61l4.13-4.13-9.08-9.08c.31-.46.57-.95.78-1.45-2.26,1.33-5.22,1.03-7.16-.91-2.3-2.3-2.3-6.03,0-8.33.92-.92,2.06-1.47,3.25-1.65C9.56-.72,5.47-.21,2.76,2.51h0ZM33.91,30.22l1.33-1.33c.32-.32.84-.32,1.16,0,.32.32.32.84,0,1.16l-1.33,1.33c-.32.32-.84.32-1.16,0-.32-.32-.32-.84,0-1.16h0ZM17.07,13.31l1.26-1.26,16.3,16.3-1.26,1.26L17.07,13.31h0Z"/>
  </g>
</svg>