<svg xmlns="http://www.w3.org/2000/svg" viewBox="0 0 100 100" fill="none" stroke="currentColor" stroke-linecap="round" stroke-linejoin="round">
  <!-- Outer Rim with Flares -->
  <circle cx="50" cy="50" r="38" stroke-width="2.5"/>
  <circle cx="50" cy="50" r="33" stroke-width="1.5" stroke-dasharray="2 3"/>
  <!-- Central Hub -->
  <circle cx="50" cy="50" r="10" stroke-width="2" fill="currentColor" fill-opacity="0.15"/>
  <circle cx="50" cy="50" r="4" fill="currentColor"/>
  <!-- 8 Radial Rays / Spokes -->
  <line x1="50" y1="12" x2="50" y2="40" stroke-width="2"/>
  <line x1="50" y1="60" x2="50" y2="88" stroke-width="2"/>
  <line x1="12" y1="50" x2="40" y2="50" stroke-width="2"/>
  <line x1="60" y1="50" x2="88" y2="50" stroke-width="2"/>
  <line x1="23.1" y1="23.1" x2="42.9" y2="42.9" stroke-width="2"/>
  <line x1="57.1" y1="57.1" x2="76.9" y2="76.9" stroke-width="2"/>
  <line x1="23.1" y1="76.9" x2="42.9" y2="57.1" stroke-width="2"/>
  <line x1="57.1" y1="42.9" x2="76.9" y2="23.1" stroke-width="2"/>
  <!-- Outer Solar Flame Teeth -->
  <path d="M50 8 L53 12 L47 12 Z M88 47 L92 50 L88 53 Z M50 92 L47 88 L53 88 Z M12 53 L8 50 L12 47 Z" fill="currentColor"/>
</svg>